<svg xmlns="http://www.w3.org/2000/svg" width="720" height="812" viewBox="0 0 720 812" font-family="'Inter','Segoe UI','PingFang SC','Microsoft YaHei',sans-serif">
  <defs>
    <marker id="aht" markerWidth="9" markerHeight="9" refX="6" refY="3" orient="auto">
      <path d="M0,0 L6,3 L0,6 Z" fill="#B8412C"/>
    </marker>
  </defs>

  <rect width="720" height="812" fill="#FFFFFF"/>

  <!-- ===== HEADER ===== -->
  <text x="48" y="46" fill="#141414" font-size="20" font-weight="700">竞品分析 Skill · 推进流程</text>
  <text x="48" y="68" fill="#8C8C8C" font-size="12.5">2026.06.04 · 7 已完成 · 推广闭环已贯通</text>
  <line x1="48" y1="86" x2="672" y2="86" stroke="#E8E8E8" stroke-width="1"/>

  <!-- ===== RAIL CONNECTORS (dashed) ===== -->
  <g stroke="#C2C2C2" stroke-width="1.3" stroke-dasharray="4 5">
    <line x1="126" y1="138" x2="126" y2="178"/>
    <line x1="126" y1="218" x2="126" y2="258"/>
    <line x1="126" y1="298" x2="126" y2="338"/>
    <line x1="126" y1="378" x2="126" y2="418"/>
    <line x1="126" y1="458" x2="126" y2="498"/>
    <line x1="126" y1="538" x2="126" y2="578"/>
  </g>

  <!-- ===== NODES (7) ===== badge cx=126 ; rect x162 w498 h64 -->
  <g>
    <!-- 1 -->
    <circle cx="126" cy="118" r="14" fill="#141414"/>
    <text x="126" y="123" fill="#FFFFFF" font-size="14" font-weight="700" text-anchor="middle">1</text>
    <rect x="162" y="86" width="498" height="64" rx="10" fill="#FFFFFF" stroke="#D8D8D8" stroke-width="1.3"/>
    <text x="186" y="115" fill="#141414" font-size="15" font-weight="700">基于业务 CLI 竞品分析建立 Skill</text>
    <text x="186" y="135" fill="#9A9A9A" font-size="12">original_report(AI CLI 工具)→ original_skill 第一版</text>
    <text x="636" y="115" fill="#8C8C8C" font-size="11.5" text-anchor="end">✓ 已完成</text>

    <!-- 2 -->
    <circle cx="126" cy="198" r="14" fill="#141414"/>
    <text x="126" y="203" fill="#FFFFFF" font-size="14" font-weight="700" text-anchor="middle">2</text>
    <rect x="162" y="166" width="498" height="64" rx="10" fill="#FFFFFF" stroke="#D8D8D8" stroke-width="1.3"/>
    <text x="186" y="195" fill="#141414" font-size="15" font-weight="700">方法论三版融合</text>
    <text x="186" y="215" fill="#9A9A9A" font-size="12">original_skill + bufan → competitive-analysis-merged</text>
    <text x="636" y="195" fill="#8C8C8C" font-size="11.5" text-anchor="end">✓ 已完成</text>

    <!-- 3 -->
    <circle cx="126" cy="278" r="14" fill="#141414"/>
    <text x="126" y="283" fill="#FFFFFF" font-size="14" font-weight="700" text-anchor="middle">3</text>
    <rect x="162" y="246" width="498" height="64" rx="10" fill="#FFFFFF" stroke="#D8D8D8" stroke-width="1.3"/>
    <text x="186" y="275" fill="#141414" font-size="15" font-weight="700">竞品找图功能加入</text>
    <text x="186" y="295" fill="#9A9A9A" font-size="12">图文采集协议 · 浏览器截图采集 · 多模态视觉核查</text>
    <text x="636" y="275" fill="#8C8C8C" font-size="11.5" text-anchor="end">✓ 已完成</text>

    <!-- 4 -->
    <circle cx="126" cy="358" r="14" fill="#141414"/>
    <text x="126" y="363" fill="#FFFFFF" font-size="14" font-weight="700" text-anchor="middle">4</text>
    <rect x="162" y="326" width="498" height="64" rx="10" fill="#FFFFFF" stroke="#D8D8D8" stroke-width="1.3"/>
    <text x="186" y="355" fill="#141414" font-size="15" font-weight="700">可视化体系建立</text>
    <text x="186" y="375" fill="#9A9A9A" font-size="12">5 视角骨架 S1–S5 × 10 表达模式 P1–P10</text>
    <text x="636" y="355" fill="#8C8C8C" font-size="11.5" text-anchor="end">✓ 已完成</text>

    <!-- 5 -->
    <circle cx="126" cy="438" r="14" fill="#141414"/>
    <text x="126" y="443" fill="#FFFFFF" font-size="14" font-weight="700" text-anchor="middle">5</text>
    <rect x="162" y="406" width="498" height="64" rx="10" fill="#FFFFFF" stroke="#D8D8D8" stroke-width="1.3"/>
    <text x="186" y="435" fill="#141414" font-size="15" font-weight="700">实战案例验证</text>
    <text x="186" y="455" fill="#9A9A9A" font-size="12">6 个案例跑通 · md / html 两类产出</text>
    <text x="636" y="435" fill="#8C8C8C" font-size="11.5" text-anchor="end">✓ 已完成</text>

    <!-- 6 -->
    <circle cx="126" cy="518" r="14" fill="#141414"/>
    <text x="126" y="523" fill="#FFFFFF" font-size="14" font-weight="700" text-anchor="middle">6</text>
    <rect x="162" y="486" width="498" height="64" rx="10" fill="#FFFFFF" stroke="#D8D8D8" stroke-width="1.3"/>
    <text x="186" y="515" fill="#141414" font-size="15" font-weight="700">使用说明文档</text>
    <text x="186" y="535" fill="#9A9A9A" font-size="12">skill-usage-guide · 部署 GitHub Pages</text>
    <text x="636" y="515" fill="#8C8C8C" font-size="11.5" text-anchor="end">✓ 已完成</text>

    <!-- 7 -->
    <circle cx="126" cy="598" r="14" fill="#141414"/>
    <text x="126" y="603" fill="#FFFFFF" font-size="14" font-weight="700" text-anchor="middle">7</text>
    <rect x="162" y="566" width="498" height="64" rx="10" fill="#FFFFFF" stroke="#D8D8D8" stroke-width="1.3"/>
    <text x="186" y="595" fill="#141414" font-size="15" font-weight="700">录制使用视频</text>
    <text x="186" y="615" fill="#9A9A9A" font-size="12">按文档走查全流程 · 录屏 + 讲解</text>
    <text x="636" y="595" fill="#8C8C8C" font-size="11.5" text-anchor="end">✓ 已完成</text>
  </g>

  <!-- ===== BRANCH to 待办支线 ===== -->
  <path d="M126,612 L126,658 L162,658" fill="none" stroke="#B8412C" stroke-width="1.3" stroke-dasharray="4 4" marker-end="url(#aht)"/>
  <text x="186" y="662" fill="#141414" font-size="13.5" font-weight="700">后续优化 · 待办支线</text>

  <!-- 2 TODO ITEMS -->
  <g>
    <rect x="182" y="682" width="478" height="48" rx="8" fill="#FFFFFF" stroke="#E5E5E5" stroke-width="1.2"/>
    <text x="202" y="711" fill="#B8412C" font-size="13.5" font-weight="800">01</text>
    <text x="230" y="705" fill="#141414" font-size="13" font-weight="700">补 S4 / S5 视角 demo</text>
    <text x="230" y="722" fill="#9A9A9A" font-size="11.5">技术架构型 / 竞争格局型各出一份完整样例</text>

    <rect x="182" y="742" width="478" height="48" rx="8" fill="#FFFFFF" stroke="#E5E5E5" stroke-width="1.2"/>
    <text x="202" y="771" fill="#B8412C" font-size="13.5" font-weight="800">02</text>
    <text x="230" y="765" fill="#141414" font-size="13" font-weight="700">跑通增量跟踪闭环</text>
    <text x="230" y="782" fill="#9A9A9A" font-size="11.5">真实样本验证 continue 的 diff 工作流</text>
  </g>
</svg>
