<svg xmlns="http://www.w3.org/2000/svg" width="1240" height="1380" viewBox="0 0 1240 1380" font-family="'Segoe UI','PingFang SC','Microsoft YaHei',sans-serif">
  <defs>
    <linearGradient id="hd" x1="0" y1="0" x2="1" y2="0">
      <stop offset="0" stop-color="#4f46e5"/>
      <stop offset="1" stop-color="#c026d3"/>
    </linearGradient>
    <filter id="sh" x="-6%" y="-6%" width="112%" height="120%">
      <feDropShadow dx="0" dy="3" stdDeviation="5" flood-color="#1f2937" flood-opacity="0.10"/>
    </filter>
  </defs>

  <rect width="1240" height="1380" fill="#faf8f4"/>

  <!-- HEADER -->
  <rect x="40" y="34" width="1160" height="104" rx="18" fill="url(#hd)"/>
  <text x="72" y="84" fill="#fff" font-size="31" font-weight="700">竞品分析 Skill · 能力 &amp; 资产看板</text>
  <text x="72" y="116" fill="#e9d5ff" font-size="16">Capability &amp; Asset Dashboard · 主版本 competitive-analysis-merged · 2026-06-04</text>

  <!-- KPI STRIP -->
  <g>
    <rect x="40" y="158" width="278" height="92" rx="14" fill="#fff" filter="url(#sh)"/>
    <text x="62" y="196" fill="#4f46e5" font-size="34" font-weight="800">4</text>
    <text x="62" y="224" fill="#374151" font-size="14" font-weight="600">阶段流水线</text>
    <text x="62" y="242" fill="#9ca3af" font-size="12">规划 · 搜集 · 分析 · 可视化</text>

    <rect x="334" y="158" width="278" height="92" rx="14" fill="#fff" filter="url(#sh)"/>
    <text x="356" y="196" fill="#059669" font-size="34" font-weight="800">10</text>
    <text x="356" y="224" fill="#374151" font-size="14" font-weight="600">Human-in-Loop 检查点</text>
    <text x="356" y="242" fill="#9ca3af" font-size="12">每个 ⏸ 必停等用户确认</text>

    <rect x="628" y="158" width="278" height="92" rx="14" fill="#fff" filter="url(#sh)"/>
    <text x="650" y="196" fill="#c026d3" font-size="34" font-weight="800">5×10</text>
    <text x="650" y="224" fill="#374151" font-size="14" font-weight="600">视角骨架 × 表达模式</text>
    <text x="650" y="242" fill="#9ca3af" font-size="12">S1–S5 骨架 · P1–P10 模式</text>

    <rect x="922" y="158" width="278" height="92" rx="14" fill="#fff" filter="url(#sh)"/>
    <text x="944" y="196" fill="#d97706" font-size="34" font-weight="800">6</text>
    <text x="944" y="224" fill="#374151" font-size="14" font-weight="600">实战验证案例</text>
    <text x="944" y="242" fill="#9ca3af" font-size="12">md / html 两类产出跑通</text>
  </g>

  <!-- LEFT: STAGE MATURITY -->
  <rect x="40" y="272" width="700" height="430" rx="16" fill="#fff" filter="url(#sh)"/>
  <text x="66" y="308" fill="#1f2937" font-size="19" font-weight="700">四阶段管道成熟度</text>
  <text x="66" y="330" fill="#9ca3af" font-size="13">规格完整度 · 是否有实战样本佐证</text>

  <!-- bar helper rows -->
  <g font-size="14">
    <!-- Stage 1 -->
    <text x="66" y="372" fill="#374151" font-weight="700">Stage 1 · 规划（Interactive）</text>
    <rect x="66" y="384" width="600" height="13" rx="6.5" fill="#eee7f5"/>
    <rect x="66" y="384" width="600" height="13" rx="6.5" fill="#10b981"/>
    <text x="676" y="395" fill="#059669" font-size="12.5" font-weight="700">100%</text>
    <text x="66" y="416" fill="#9ca3af" font-size="12.5">意图路由 · 视角推断 · 快速/继续模式 · 增量 diff 工作流</text>

    <!-- Stage 2 -->
    <text x="66" y="452" fill="#374151" font-weight="700">Stage 2 · 信息搜集</text>
    <rect x="66" y="464" width="600" height="13" rx="6.5" fill="#eee7f5"/>
    <rect x="66" y="464" width="570" height="13" rx="6.5" fill="#10b981"/>
    <text x="676" y="475" fill="#059669" font-size="12.5" font-weight="700">95%</text>
    <text x="66" y="496" fill="#9ca3af" font-size="12.5">图文采集协议 · 截图视觉解析 · 失败链接处理 · 多源核查</text>

    <!-- Stage 3 -->
    <text x="66" y="532" fill="#374151" font-weight="700">Stage 3 · 洞察分析</text>
    <rect x="66" y="544" width="600" height="13" rx="6.5" fill="#eee7f5"/>
    <rect x="66" y="544" width="588" height="13" rx="6.5" fill="#10b981"/>
    <text x="676" y="555" fill="#059669" font-size="12.5" font-weight="700">98%</text>
    <text x="66" y="576" fill="#9ca3af" font-size="12.5">用户旅程 4 行结构 · SWOT · 差距矩阵 · 洞察草稿确认（What/Why/So-what）</text>

    <!-- Stage 4 -->
    <text x="66" y="612" fill="#374151" font-weight="700">Stage 4 · 可视化（HTML）</text>
    <rect x="66" y="624" width="600" height="13" rx="6.5" fill="#eee7f5"/>
    <rect x="66" y="624" width="540" height="13" rx="6.5" fill="#22c55e"/>
    <text x="676" y="635" fill="#16a34a" font-size="12.5" font-weight="700">90%</text>
    <text x="66" y="656" fill="#9ca3af" font-size="12.5">楼层式多页 · Snap Scroll · 两层导航 · Mockup 变体；S4/S5 独立 demo 待补</text>
  </g>
  <line x1="66" y1="676" x2="714" y2="676" stroke="#f0ece6" stroke-width="1"/>
  <text x="66" y="694" fill="#6b7280" font-size="12.5">四阶段相对独立，可单跑某一段；可视化阶段可按需跳过</text>

  <!-- RIGHT: ASSET INVENTORY -->
  <rect x="760" y="272" width="440" height="430" rx="16" fill="#fff" filter="url(#sh)"/>
  <text x="786" y="308" fill="#1f2937" font-size="19" font-weight="700">知识库资产清单</text>
  <text x="786" y="330" fill="#9ca3af" font-size="13">上传知识库 = SKILL.md + references/ 全量</text>
  <g font-size="13.5">
    <rect x="786" y="348" width="388" height="34" rx="8" fill="#f5f3ff"/>
    <text x="800" y="370" fill="#4338ca" font-weight="700">SKILL.md</text>
    <text x="1160" y="370" fill="#6b7280" text-anchor="end">28 KB · 主入口</text>

    <rect x="786" y="388" width="388" height="34" rx="8" fill="#faf5ff"/>
    <text x="800" y="410" fill="#7e22ce" font-weight="700">visualization-framework.md</text>
    <text x="1160" y="410" fill="#6b7280" text-anchor="end">40 KB · 最重</text>

    <rect x="786" y="428" width="388" height="34" rx="8" fill="#fff"/>
    <text x="800" y="450" fill="#374151">research-methodology.md</text>
    <text x="1160" y="450" fill="#9ca3af" text-anchor="end">20 KB</text>

    <rect x="786" y="468" width="388" height="34" rx="8" fill="#faf9f6"/>
    <text x="800" y="490" fill="#374151">analysis-frameworks.md</text>
    <text x="1160" y="490" fill="#9ca3af" text-anchor="end">16 KB</text>

    <rect x="786" y="508" width="388" height="34" rx="8" fill="#fff"/>
    <text x="800" y="530" fill="#374151">demo-conversations.md</text>
    <text x="1160" y="530" fill="#9ca3af" text-anchor="end">12 KB</text>

    <rect x="786" y="548" width="388" height="34" rx="8" fill="#faf9f6"/>
    <text x="800" y="570" fill="#374151">GUIDE.md</text>
    <text x="1160" y="570" fill="#9ca3af" text-anchor="end">8 KB · 新人先看</text>

    <rect x="786" y="588" width="388" height="34" rx="8" fill="#fff"/>
    <text x="800" y="610" fill="#374151">verification-protocol.md</text>
    <text x="1160" y="610" fill="#9ca3af" text-anchor="end">4 KB</text>

    <rect x="786" y="628" width="388" height="34" rx="8" fill="#faf9f6"/>
    <text x="800" y="650" fill="#374151">assets/ report + tracking 模板</text>
    <text x="1160" y="650" fill="#9ca3af" text-anchor="end">4+4 KB</text>
  </g>
  <text x="786" y="686" fill="#6b7280" font-size="12.5">合计 9 文件 · 约 136 KB · 另有 3 形态对外文档（HTML/PDF/JPEG）</text>

  <!-- PERSPECTIVE COVERAGE -->
  <rect x="40" y="722" width="1160" height="232" rx="16" fill="#fff" filter="url(#sh)"/>
  <text x="66" y="758" fill="#1f2937" font-size="19" font-weight="700">五视角骨架覆盖度</text>
  <text x="66" y="780" fill="#9ca3af" font-size="13">规格层全部就绪；实战 demo 仍偏体验旅程型（S1）</text>
  <g font-size="13.5">
    <!-- S1 -->
    <rect x="66" y="800" width="212" height="128" rx="12" fill="#ecfdf5" stroke="#a7f3d0" stroke-width="1.3"/>
    <text x="84" y="828" fill="#065f46" font-size="15" font-weight="800">S1 体验旅程型</text>
    <text x="84" y="850" fill="#047857" font-size="12.5">UX 视角 · 默认骨架</text>
    <rect x="84" y="864" width="120" height="24" rx="12" fill="#10b981"/>
    <text x="144" y="881" fill="#fff" font-size="12.5" font-weight="700" text-anchor="middle">规格 + demo ✓</text>
    <text x="84" y="912" fill="#059669" font-size="11.5">cockpit / figma-d2c 等多样本</text>
    <!-- S2 -->
    <rect x="290" y="800" width="212" height="128" rx="12" fill="#f0fdf4" stroke="#bbf7d0" stroke-width="1.3"/>
    <text x="308" y="828" fill="#166534" font-size="15" font-weight="800">S2 功能全景型</text>
    <text x="308" y="850" fill="#15803d" font-size="12.5">PM 视角</text>
    <rect x="308" y="864" width="120" height="24" rx="12" fill="#22c55e"/>
    <text x="368" y="881" fill="#fff" font-size="12.5" font-weight="700" text-anchor="middle">规格就绪</text>
    <text x="308" y="912" fill="#16a34a" font-size="11.5">局部出现在已有报告中</text>
    <!-- S3 -->
    <rect x="514" y="800" width="212" height="128" rx="12" fill="#f0fdf4" stroke="#bbf7d0" stroke-width="1.3"/>
    <text x="532" y="828" fill="#166534" font-size="15" font-weight="800">S3 设计语言型</text>
    <text x="532" y="850" fill="#15803d" font-size="12.5">UI 视角</text>
    <rect x="532" y="864" width="120" height="24" rx="12" fill="#22c55e"/>
    <text x="592" y="881" fill="#fff" font-size="12.5" font-weight="700" text-anchor="middle">规格就绪</text>
    <text x="532" y="912" fill="#16a34a" font-size="11.5">截图视觉解析直接支撑</text>
    <!-- S4 -->
    <rect x="738" y="800" width="212" height="128" rx="12" fill="#fffbeb" stroke="#fde68a" stroke-width="1.3"/>
    <text x="756" y="828" fill="#92400e" font-size="15" font-weight="800">S4 能力架构型</text>
    <text x="756" y="850" fill="#b45309" font-size="12.5">Tech 视角</text>
    <rect x="756" y="864" width="120" height="24" rx="12" fill="#f59e0b"/>
    <text x="816" y="881" fill="#fff" font-size="12.5" font-weight="700" text-anchor="middle">缺独立 demo</text>
    <text x="756" y="912" fill="#d97706" font-size="11.5">待补技术架构型样例</text>
    <!-- S5 -->
    <rect x="962" y="800" width="212" height="128" rx="12" fill="#fffbeb" stroke="#fde68a" stroke-width="1.3"/>
    <text x="980" y="828" fill="#92400e" font-size="15" font-weight="800">S5 竞争格局型</text>
    <text x="980" y="850" fill="#b45309" font-size="12.5">Strategy 视角</text>
    <rect x="980" y="864" width="120" height="24" rx="12" fill="#f59e0b"/>
    <text x="1040" y="881" fill="#fff" font-size="12.5" font-weight="700" text-anchor="middle">缺独立 demo</text>
    <text x="980" y="912" fill="#d97706" font-size="11.5">待补竞争格局型样例</text>
  </g>

  <!-- NEXT STEPS -->
  <rect x="40" y="974" width="1160" height="160" rx="16" fill="#fff" filter="url(#sh)"/>
  <text x="66" y="1010" fill="#1f2937" font-size="19" font-weight="700">缺口 &amp; 下一步重点</text>
  <g font-size="13.5">
    <rect x="66" y="1028" width="360" height="86" rx="11" fill="#fef2f2" stroke="#fca5a5" stroke-width="1.3"/>
    <text x="86" y="1058" fill="#b91c1c" font-size="15" font-weight="800">① 录制使用视频</text>
    <text x="86" y="1082" fill="#dc2626">闭环最后一环（方法论→实战→</text>
    <text x="86" y="1100" fill="#dc2626">文档→视频），优先级最高</text>

    <rect x="446" y="1028" width="360" height="86" rx="11" fill="#fff7ed" stroke="#fdba74" stroke-width="1.3"/>
    <text x="466" y="1058" fill="#9a3412" font-size="15" font-weight="800">② 补 S4 / S5 视角 demo</text>
    <text x="466" y="1082" fill="#b45309">技术架构型 / 竞争格局型各出</text>
    <text x="466" y="1100" fill="#b45309">一份完整可视化样例</text>

    <rect x="826" y="1028" width="348" height="86" rx="11" fill="#eff6ff" stroke="#93c5fd" stroke-width="1.3"/>
    <text x="846" y="1058" fill="#1e40af" font-size="15" font-weight="800">③ 跑通增量跟踪闭环</text>
    <text x="846" y="1082" fill="#2563eb">用真实样本验证 continue 的</text>
    <text x="846" y="1100" fill="#2563eb">恢复 / 增量 diff 工作流</text>
  </g>

  <!-- FOOTER STATUS LINE -->
  <rect x="40" y="1154" width="1160" height="186" rx="16" fill="#fff" filter="url(#sh)"/>
  <text x="66" y="1190" fill="#1f2937" font-size="19" font-weight="700">一句话现状</text>
  <text x="66" y="1224" fill="#374151" font-size="14.5">方法论与文档已成体系、对外可分发；<tspan fill="#059669" font-weight="700">框架成熟度 ≈ 95%</tspan>，瓶颈不在「能不能做」而在「样例覆盖与推广」。</text>
  <line x1="66" y1="1244" x2="1174" y2="1244" stroke="#f0ece6" stroke-width="1"/>
  <g font-size="13.5" fill="#4b5563">
    <circle cx="74" cy="1276" r="6" fill="#10b981"/><text x="90" y="1281">已就绪：4 阶段规格 · 10 检查点 · 5×10 骨架模式 · 9 文件知识库 · 3 形态使用文档</text>
    <circle cx="74" cy="1306" r="6" fill="#f59e0b"/><text x="90" y="1311">进行中 / 待补：使用视频 · S4/S5 独立 demo · 增量跟踪真实样本</text>
  </g>
</svg>
