<svg xmlns="http://www.w3.org/2000/svg" width="1240" height="1480" viewBox="0 0 1240 1480" font-family="'Segoe UI','PingFang SC','Microsoft YaHei',sans-serif">
  <defs>
    <linearGradient id="hdr" x1="0" y1="0" x2="1" y2="0">
      <stop offset="0" stop-color="#4f46e5"/>
      <stop offset="1" stop-color="#c026d3"/>
    </linearGradient>
    <filter id="sh" x="-8%" y="-8%" width="116%" height="124%">
      <feDropShadow dx="0" dy="3" stdDeviation="5" flood-color="#1f2937" flood-opacity="0.12"/>
    </filter>
  </defs>

  <rect width="1240" height="1480" fill="#faf8f4"/>

  <!-- ===== HEADER ===== -->
  <rect x="40" y="36" width="1160" height="110" rx="18" fill="url(#hdr)"/>
  <text x="72" y="88" fill="#ffffff" font-size="32" font-weight="700">竞品分析 Skill · 推进进程</text>
  <text x="72" y="122" fill="#e9d5ff" font-size="17">Workflow of Project Progress · 5 阶段 · 4 已完成 · 1 进行中 · 2026-06-04</text>

  <!-- ===== WORKFLOW (top → bottom) ===== -->
  <!-- 连接主干：node cx=110, r=30 -->
  <!-- centers: 250, 470, 690, 910, 1130 ; step=220 -->
  <g stroke-linecap="round">
    <line x1="110" y1="280" x2="110" y2="440" stroke="#10b981" stroke-width="5"/>
    <line x1="110" y1="500" x2="110" y2="660" stroke="#10b981" stroke-width="5"/>
    <line x1="110" y1="720" x2="110" y2="880" stroke="#10b981" stroke-width="5"/>
    <line x1="110" y1="940" x2="110" y2="1100" stroke="#f59e0b" stroke-width="5" stroke-dasharray="3 9"/>
  </g>

  <!-- ===== STAGE 1 ===== -->
  <g font-family="inherit">
    <circle cx="110" cy="250" r="30" fill="#10b981"/>
    <text x="110" y="260" fill="#fff" font-size="26" font-weight="800" text-anchor="middle">✓</text>
    <rect x="170" y="180" width="1030" height="140" rx="16" fill="#ffffff" filter="url(#sh)"/>
    <rect x="170" y="180" width="7" height="140" rx="3.5" fill="#10b981"/>
    <text x="202" y="222" fill="#1f2937" font-size="21" font-weight="800">① 方法论三版融合</text>
    <rect x="1052" y="200" width="128" height="32" rx="16" fill="#ecfdf5"/>
    <text x="1116" y="221" fill="#059669" font-size="14" font-weight="700" text-anchor="middle">已完成 · 100%</text>
    <text x="202" y="252" fill="#6b7280" font-size="14.5">original_skill（时昕昱）+ bufan（卜凡）→ competitive-analysis-merged 主用版本</text>
    <text x="202" y="278" fill="#9ca3af" font-size="13">产出：SKILL.md 27KB + references×6 · 4 阶段管道 · 10 个 HITL 检查点 · 意图路由 · 截图视觉解析 / 洞察草稿确认</text>
    <rect x="202" y="294" width="850" height="10" rx="5" fill="#ece9f5"/>
    <rect x="202" y="294" width="850" height="10" rx="5" fill="#10b981"/>
  </g>

  <!-- ===== STAGE 2 ===== -->
  <g font-family="inherit">
    <circle cx="110" cy="470" r="30" fill="#10b981"/>
    <text x="110" y="480" fill="#fff" font-size="26" font-weight="800" text-anchor="middle">✓</text>
    <rect x="170" y="400" width="1030" height="140" rx="16" fill="#ffffff" filter="url(#sh)"/>
    <rect x="170" y="400" width="7" height="140" rx="3.5" fill="#10b981"/>
    <text x="202" y="442" fill="#1f2937" font-size="21" font-weight="800">② 实战案例验证</text>
    <rect x="1052" y="420" width="128" height="32" rx="16" fill="#ecfdf5"/>
    <text x="1116" y="441" fill="#059669" font-size="14" font-weight="700" text-anchor="middle">已完成 · 6 案例</text>
    <text x="202" y="472" fill="#6b7280" font-size="14.5">多领域跑通：figma-d2c · aigc-visual-v3 · cann/cli-analysis · 芯片算子 · cockpit-user-journey · framework-demo</text>
    <text x="202" y="498" fill="#9ca3af" font-size="13">覆盖 md / html 两类产出 · 含截图源材料与垂直领域 16 触点框架扩展（视角仍偏 UX / PM）</text>
    <rect x="202" y="514" width="850" height="10" rx="5" fill="#ece9f5"/>
    <rect x="202" y="514" width="553" height="10" rx="5" fill="#f59e0b"/>
  </g>

  <!-- ===== STAGE 3 ===== -->
  <g font-family="inherit">
    <circle cx="110" cy="690" r="30" fill="#10b981"/>
    <text x="110" y="700" fill="#fff" font-size="26" font-weight="800" text-anchor="middle">✓</text>
    <rect x="170" y="620" width="1030" height="140" rx="16" fill="#ffffff" filter="url(#sh)"/>
    <rect x="170" y="620" width="7" height="140" rx="3.5" fill="#22c55e"/>
    <text x="202" y="662" fill="#1f2937" font-size="21" font-weight="800">③ 可视化体系建立</text>
    <rect x="1052" y="640" width="128" height="32" rx="16" fill="#f0fdf4"/>
    <text x="1116" y="661" fill="#16a34a" font-size="14" font-weight="700" text-anchor="middle">基本完成 · 90%</text>
    <text x="202" y="692" fill="#6b7280" font-size="14.5">5 视角骨架 S1–S5（UX / PM / UI / Tech / Strategy）× 10 表达模式 P1–P10 + 骨架组合规则</text>
    <text x="202" y="718" fill="#9ca3af" font-size="13">待补：S4 能力架构型 / S5 竞争格局型 的独立完整 demo（现有 demo 偏体验旅程型 S1）</text>
    <rect x="202" y="734" width="850" height="10" rx="5" fill="#ece9f5"/>
    <rect x="202" y="734" width="765" height="10" rx="5" fill="#22c55e"/>
  </g>

  <!-- ===== STAGE 4 ===== -->
  <g font-family="inherit">
    <circle cx="110" cy="910" r="30" fill="#10b981"/>
    <text x="110" y="920" fill="#fff" font-size="26" font-weight="800" text-anchor="middle">✓</text>
    <rect x="170" y="840" width="1030" height="140" rx="16" fill="#ffffff" filter="url(#sh)"/>
    <rect x="170" y="840" width="7" height="140" rx="3.5" fill="#10b981"/>
    <text x="202" y="882" fill="#1f2937" font-size="21" font-weight="800">④ 形成使用说明文档</text>
    <rect x="1052" y="860" width="128" height="32" rx="16" fill="#ecfdf5"/>
    <text x="1116" y="881" fill="#059669" font-size="14" font-weight="700" text-anchor="middle">已完成 · 100%</text>
    <text x="202" y="912" fill="#6b7280" font-size="14.5">skill-usage-guide.html（+ flat 流式版）部署 GitHub Pages，三种使用方式 + 三种模式 + 四阶段全检查点</text>
    <text x="202" y="938" fill="#9ca3af" font-size="13">三形态分发：网页 HTML · PDF×3 · JPEG 长图 ｜ 另含 skill-improvement-report.html 融合分析报告</text>
    <rect x="202" y="954" width="850" height="10" rx="5" fill="#ece9f5"/>
    <rect x="202" y="954" width="850" height="10" rx="5" fill="#10b981"/>
  </g>

  <!-- ===== STAGE 5 ===== -->
  <g font-family="inherit">
    <circle cx="110" cy="1130" r="30" fill="#ffffff" stroke="#f59e0b" stroke-width="5"/>
    <text x="110" y="1140" fill="#f59e0b" font-size="24" font-weight="800" text-anchor="middle">5</text>
    <rect x="170" y="1060" width="1030" height="140" rx="16" fill="#fffdf7" stroke="#fcd9a3" stroke-width="1.5" filter="url(#sh)"/>
    <rect x="170" y="1060" width="7" height="140" rx="3.5" fill="#f59e0b"/>
    <text x="202" y="1102" fill="#1f2937" font-size="21" font-weight="800">⑤ 录制使用视频</text>
    <rect x="1040" y="1080" width="140" height="32" rx="16" fill="#fef3c7"/>
    <text x="1110" y="1101" fill="#b45309" font-size="14" font-weight="700" text-anchor="middle">进行中 · 待启动</text>
    <text x="202" y="1132" fill="#6b7280" font-size="14.5">按使用说明文档走查一遍完整流程，录屏 + 讲解，沉淀为可对外分发的演示视频</text>
    <text x="202" y="1158" fill="#d97706" font-size="13">当前唯一未完里程碑 —— 是「方法论 → 实战 → 文档 → 视频」推广闭环的最后一环</text>
    <rect x="202" y="1174" width="850" height="10" rx="5" fill="#fdebd0"/>
    <rect x="202" y="1174" width="85" height="10" rx="5" fill="#f59e0b"/>
  </g>

  <!-- ===== LEGEND / FOOTER ===== -->
  <rect x="170" y="1250" width="1030" height="180" rx="16" fill="#ffffff" filter="url(#sh)"/>
  <text x="200" y="1290" fill="#1f2937" font-size="18" font-weight="700">图例 &amp; 下一步重点</text>
  <g font-family="inherit" font-size="14">
    <circle cx="212" cy="1322" r="9" fill="#10b981"/><text x="232" y="1327" fill="#374151">已完成阶段</text>
    <circle cx="372" cy="1322" r="9" fill="#ffffff" stroke="#f59e0b" stroke-width="3"/><text x="392" y="1327" fill="#374151">进行中 / 待启动</text>
    <line x1="560" y1="1322" x2="600" y2="1322" stroke="#10b981" stroke-width="5"/><text x="612" y="1327" fill="#374151">已贯通主干</text>
    <line x1="740" y1="1322" x2="780" y2="1322" stroke="#f59e0b" stroke-width="5" stroke-dasharray="3 9"/><text x="792" y="1327" fill="#374151">待推进环节</text>
  </g>
  <g font-family="inherit" font-size="13.5">
    <rect x="200" y="1346" width="316" height="64" rx="10" fill="#fef2f2" stroke="#fca5a5" stroke-width="1.3"/>
    <text x="216" y="1372" fill="#b91c1c" font-size="14" font-weight="700">① 录制使用视频</text>
    <text x="216" y="1394" fill="#dc2626">闭环最后一环，优先级最高</text>
    <rect x="528" y="1346" width="316" height="64" rx="10" fill="#fff7ed" stroke="#fdba74" stroke-width="1.3"/>
    <text x="544" y="1372" fill="#9a3412" font-size="14" font-weight="700">② 补 S4 / S5 视角 demo</text>
    <text x="544" y="1394" fill="#b45309">技术架构型 / 竞争格局型样例</text>
    <rect x="856" y="1346" width="324" height="64" rx="10" fill="#eff6ff" stroke="#93c5fd" stroke-width="1.3"/>
    <text x="872" y="1372" fill="#1e40af" font-size="14" font-weight="700">③ 跑通增量跟踪闭环</text>
    <text x="872" y="1394" fill="#2563eb">continue / 增量更新真实样本验证</text>
  </g>
</svg>
