<svg xmlns="http://www.w3.org/2000/svg" width="720" height="568" viewBox="0 0 720 568" font-family="'Inter','Segoe UI','PingFang SC','Microsoft YaHei',sans-serif">
  <rect width="720" height="568" fill="#FFFFFF"/>

  <!-- ===== HEADER ===== -->
  <text x="48" y="40" fill="#141414" font-size="19" font-weight="700">竞品分析 Skill · 推进流程</text>
  <text x="48" y="60" fill="#8C8C8C" font-size="12">2026.06.04 · 7 已完成 · 推广闭环已贯通</text>
  <line x1="48" y1="76" x2="672" y2="76" stroke="#E8E8E8" stroke-width="1"/>

  <!-- ===== RAIL CONNECTORS (dashed) ===== -->
  <g stroke="#C2C2C2" stroke-width="1.3" stroke-dasharray="4 5">
    <line x1="124" y1="124" x2="124" y2="154"/>
    <line x1="124" y1="190" x2="124" y2="220"/>
    <line x1="124" y1="256" x2="124" y2="286"/>
    <line x1="124" y1="322" x2="124" y2="352"/>
    <line x1="124" y1="388" x2="124" y2="418"/>
    <line x1="124" y1="454" x2="124" y2="484"/>
  </g>

  <!-- ===== NODES (7) ===== badge cx=124 r13 ; rect x160 w500 h52 -->
  <g>
    <!-- 1 -->
    <circle cx="124" cy="106" r="13" fill="#141414"/>
    <text x="124" y="111" fill="#FFFFFF" font-size="13" font-weight="700" text-anchor="middle">1</text>
    <rect x="160" y="80" width="500" height="52" rx="9" fill="#FFFFFF" stroke="#D8D8D8" stroke-width="1.3"/>
    <text x="184" y="103" fill="#141414" font-size="14.5" font-weight="700">基于业务 CLI 竞品分析建立 Skill</text>
    <text x="184" y="121" fill="#9A9A9A" font-size="11.5">original_report(AI CLI 工具)→ original_skill 第一版</text>
    <text x="636" y="103" fill="#8C8C8C" font-size="11" text-anchor="end">✓ 已完成</text>

    <!-- 2 -->
    <circle cx="124" cy="172" r="13" fill="#141414"/>
    <text x="124" y="177" fill="#FFFFFF" font-size="13" font-weight="700" text-anchor="middle">2</text>
    <rect x="160" y="146" width="500" height="52" rx="9" fill="#FFFFFF" stroke="#D8D8D8" stroke-width="1.3"/>
    <text x="184" y="169" fill="#141414" font-size="14.5" font-weight="700">方法论三版融合</text>
    <text x="184" y="187" fill="#9A9A9A" font-size="11.5">original_skill + bufan → competitive-analysis-merged</text>
    <text x="636" y="169" fill="#8C8C8C" font-size="11" text-anchor="end">✓ 已完成</text>

    <!-- 3 -->
    <circle cx="124" cy="238" r="13" fill="#141414"/>
    <text x="124" y="243" fill="#FFFFFF" font-size="13" font-weight="700" text-anchor="middle">3</text>
    <rect x="160" y="212" width="500" height="52" rx="9" fill="#FFFFFF" stroke="#D8D8D8" stroke-width="1.3"/>
    <text x="184" y="235" fill="#141414" font-size="14.5" font-weight="700">竞品找图功能加入</text>
    <text x="184" y="253" fill="#9A9A9A" font-size="11.5">图文采集协议 · 浏览器截图采集 · 多模态视觉核查</text>
    <text x="636" y="235" fill="#8C8C8C" font-size="11" text-anchor="end">✓ 已完成</text>

    <!-- 4 -->
    <circle cx="124" cy="304" r="13" fill="#141414"/>
    <text x="124" y="309" fill="#FFFFFF" font-size="13" font-weight="700" text-anchor="middle">4</text>
    <rect x="160" y="278" width="500" height="52" rx="9" fill="#FFFFFF" stroke="#D8D8D8" stroke-width="1.3"/>
    <text x="184" y="301" fill="#141414" font-size="14.5" font-weight="700">可视化体系建立</text>
    <text x="184" y="319" fill="#9A9A9A" font-size="11.5">5 视角骨架 S1–S5 × 10 表达模式 P1–P10</text>
    <text x="636" y="301" fill="#8C8C8C" font-size="11" text-anchor="end">✓ 已完成</text>

    <!-- 5 -->
    <circle cx="124" cy="370" r="13" fill="#141414"/>
    <text x="124" y="375" fill="#FFFFFF" font-size="13" font-weight="700" text-anchor="middle">5</text>
    <rect x="160" y="344" width="500" height="52" rx="9" fill="#FFFFFF" stroke="#D8D8D8" stroke-width="1.3"/>
    <text x="184" y="367" fill="#141414" font-size="14.5" font-weight="700">实战案例验证</text>
    <text x="184" y="385" fill="#9A9A9A" font-size="11.5">6 个案例跑通 · md / html 两类产出</text>
    <text x="636" y="367" fill="#8C8C8C" font-size="11" text-anchor="end">✓ 已完成</text>

    <!-- 6 -->
    <circle cx="124" cy="436" r="13" fill="#141414"/>
    <text x="124" y="441" fill="#FFFFFF" font-size="13" font-weight="700" text-anchor="middle">6</text>
    <rect x="160" y="410" width="500" height="52" rx="9" fill="#FFFFFF" stroke="#D8D8D8" stroke-width="1.3"/>
    <text x="184" y="433" fill="#141414" font-size="14.5" font-weight="700">使用说明文档</text>
    <text x="184" y="451" fill="#9A9A9A" font-size="11.5">skill-usage-guide · 部署 GitHub Pages</text>
    <text x="636" y="433" fill="#8C8C8C" font-size="11" text-anchor="end">✓ 已完成</text>

    <!-- 7 -->
    <circle cx="124" cy="502" r="13" fill="#141414"/>
    <text x="124" y="507" fill="#FFFFFF" font-size="13" font-weight="700" text-anchor="middle">7</text>
    <rect x="160" y="476" width="500" height="52" rx="9" fill="#FFFFFF" stroke="#D8D8D8" stroke-width="1.3"/>
    <text x="184" y="499" fill="#141414" font-size="14.5" font-weight="700">录制使用视频</text>
    <text x="184" y="517" fill="#9A9A9A" font-size="11.5">按文档走查全流程 · 录屏 + 讲解</text>
    <text x="636" y="499" fill="#8C8C8C" font-size="11" text-anchor="end">✓ 已完成</text>
  </g>
</svg>
