<svg xmlns="http://www.w3.org/2000/svg" width="760" height="650" viewBox="0 0 760 650" font-family="'Inter','Segoe UI','PingFang SC','Microsoft YaHei',sans-serif">
  <rect width="760" height="650" fill="#FFFFFF"/>

  <!-- ===== PHASE BLOCKS (outer) ===== -->
  <g fill="#FFFFFF" stroke="#E6E6E6" stroke-width="1.2">
    <rect x="32" y="12"  width="696" height="164" rx="16"/>
    <rect x="32" y="190" width="696" height="164" rx="16"/>
    <rect x="32" y="368" width="696" height="92"  rx="16"/>
    <rect x="32" y="474" width="696" height="164" rx="16"/>
  </g>

  <!-- ===== LEFT LABEL PANELS (shaded) ===== -->
  <g fill="#ECEDF0">
    <path d="M116,12  L48,12  Q32,12  32,28  L32,160 Q32,176 48,176 L116,176 Z"/>
    <path d="M116,190 L48,190 Q32,190 32,206 L32,338 Q32,354 48,354 L116,354 Z"/>
    <path d="M116,368 L48,368 Q32,368 32,384 L32,444 Q32,460 48,460 L116,460 Z"/>
    <path d="M116,474 L48,474 Q32,474 32,490 L32,622 Q32,638 48,638 L116,638 Z"/>
  </g>
  <g fill="#3A3A3A" font-size="13" font-weight="700" text-anchor="middle">
    <text x="74" y="98">形成</text>
    <text x="74" y="268">能力<tspan x="74" dy="18">建设</tspan></text>
    <text x="74" y="418">验证</text>
    <text x="74" y="560">推广</text>
  </g>

  <!-- ===== TIMELINE SPINE (within blocks) ===== -->
  <g stroke="#D9D9D9" stroke-width="2" stroke-linecap="round">
    <line x1="156" y1="88"  x2="156" y2="112"/>
    <line x1="156" y1="266" x2="156" y2="290"/>
    <line x1="156" y1="550" x2="156" y2="574"/>
  </g>

  <!-- ================= NODES ================= -->

  <!-- NODE 1  T=40 cy=64 -->
  <rect x="132" y="40" width="48" height="48" rx="12" fill="#F4F5F7"/>
  <g transform="translate(156,64)" stroke="#141414" stroke-width="1.6" fill="none" stroke-linecap="round" stroke-linejoin="round">
    <rect x="-11" y="-9" width="22" height="18" rx="3"/>
    <polyline points="-7,-3 -3.5,0 -7,3"/>
    <line x1="-1" y1="4" x2="5" y2="4"/>
  </g>
  <circle cx="132" cy="40" r="11" fill="#141414"/>
  <text x="132" y="44" fill="#FFFFFF" font-size="11" font-weight="700" text-anchor="middle">1</text>
  <text x="204" y="59" fill="#141414" font-size="15.5" font-weight="700">基于实际业务 AI CLI 竞品分析跑通后建立 Skill</text>
  <text x="204" y="79" fill="#8C8C8C" font-size="11.5">original_report(AI CLI 竞品分析)→ original_skill 第一版</text>
  <g transform="translate(696,64)"><circle r="11" fill="#F4F5F7"/><polyline points="-4.5,0 -1.5,3.5 4.5,-4" fill="none" stroke="#6B6B6B" stroke-width="1.8" stroke-linecap="round" stroke-linejoin="round"/></g>

  <!-- NODE 2  T=112 cy=136 -->
  <rect x="132" y="112" width="48" height="48" rx="12" fill="#F4F5F7"/>
  <g transform="translate(156,136)" stroke="#141414" stroke-width="1.6" fill="none" stroke-linecap="round" stroke-linejoin="round">
    <line x1="-8" y1="-8" x2="0" y2="0"/>
    <line x1="8" y1="-8" x2="0" y2="0"/>
    <line x1="0" y1="0" x2="0" y2="9"/>
    <circle cx="-8" cy="-8" r="1.8" fill="#141414" stroke="none"/>
    <circle cx="8" cy="-8" r="1.8" fill="#141414" stroke="none"/>
    <circle cx="0" cy="9" r="1.8" fill="#141414" stroke="none"/>
  </g>
  <circle cx="132" cy="112" r="11" fill="#141414"/>
  <text x="132" y="116" fill="#FFFFFF" font-size="11" font-weight="700" text-anchor="middle">2</text>
  <text x="204" y="131" fill="#141414" font-size="15.5" font-weight="700">方法论两版融合</text>
  <text x="204" y="151" fill="#8C8C8C" font-size="11.5">xinyu:HTML 可视化规格 + bufan:流程与搜集方法论</text>
  <g transform="translate(696,136)"><circle r="11" fill="#F4F5F7"/><polyline points="-4.5,0 -1.5,3.5 4.5,-4" fill="none" stroke="#6B6B6B" stroke-width="1.8" stroke-linecap="round" stroke-linejoin="round"/></g>

  <!-- NODE 3  T=218 cy=242 -->
  <rect x="132" y="218" width="48" height="48" rx="12" fill="#F4F5F7"/>
  <g transform="translate(156,242)" stroke="#141414" stroke-width="1.6" fill="none" stroke-linecap="round" stroke-linejoin="round">
    <line x1="-10" y1="8" x2="10" y2="8"/>
    <line x1="-6" y1="8" x2="-6" y2="1" stroke-width="2.4"/>
    <line x1="0" y1="8" x2="0" y2="-3" stroke-width="2.4"/>
    <line x1="6" y1="8" x2="6" y2="-7" stroke-width="2.4"/>
  </g>
  <circle cx="132" cy="218" r="11" fill="#141414"/>
  <text x="132" y="222" fill="#FFFFFF" font-size="11" font-weight="700" text-anchor="middle">3</text>
  <text x="204" y="237" fill="#141414" font-size="15.5" font-weight="700">可视化完整体系建立</text>
  <text x="204" y="257" fill="#8C8C8C" font-size="11.5">5 视角骨架 S1–S5 × 10 表达模式 P1–P10</text>
  <g transform="translate(696,242)"><circle r="11" fill="#F4F5F7"/><polyline points="-4.5,0 -1.5,3.5 4.5,-4" fill="none" stroke="#6B6B6B" stroke-width="1.8" stroke-linecap="round" stroke-linejoin="round"/></g>

  <!-- NODE 4  T=290 cy=314 -->
  <rect x="132" y="290" width="48" height="48" rx="12" fill="#F4F5F7"/>
  <g transform="translate(156,314)" stroke="#141414" stroke-width="1.6" fill="none" stroke-linecap="round" stroke-linejoin="round">
    <polyline points="-4,-7 -2,-11 4,-11 6,-7"/>
    <rect x="-11" y="-7" width="22" height="16" rx="3"/>
    <circle cx="0" cy="1" r="4.5"/>
  </g>
  <circle cx="132" cy="290" r="11" fill="#141414"/>
  <text x="132" y="294" fill="#FFFFFF" font-size="11" font-weight="700" text-anchor="middle">4</text>
  <text x="204" y="309" fill="#141414" font-size="15.5" font-weight="700">视觉素材采集能力增强</text>
  <text x="204" y="329" fill="#8C8C8C" font-size="11.5">图文采集协议 · 浏览器截图采集 · 多模态视觉核查</text>
  <g transform="translate(696,314)"><circle r="11" fill="#F4F5F7"/><polyline points="-4.5,0 -1.5,3.5 4.5,-4" fill="none" stroke="#6B6B6B" stroke-width="1.8" stroke-linecap="round" stroke-linejoin="round"/></g>

  <!-- NODE 5  T=396 cy=420 -->
  <rect x="132" y="396" width="48" height="48" rx="12" fill="#F4F5F7"/>
  <g transform="translate(156,420)" stroke="#141414" stroke-width="1.6" fill="none" stroke-linecap="round" stroke-linejoin="round">
    <rect x="-9" y="-10" width="18" height="22" rx="3"/>
    <rect x="-4" y="-13" width="8" height="5" rx="1.5"/>
    <polyline points="-5,1 -1,5 6,-4"/>
  </g>
  <circle cx="132" cy="396" r="11" fill="#141414"/>
  <text x="132" y="400" fill="#FFFFFF" font-size="11" font-weight="700" text-anchor="middle">5</text>
  <text x="204" y="415" fill="#141414" font-size="15.5" font-weight="700">实战案例验证</text>
  <text x="204" y="435" fill="#8C8C8C" font-size="11.5">6 个案例跑通 · md / html 两类产出</text>
  <g transform="translate(696,420)"><circle r="11" fill="#F4F5F7"/><polyline points="-4.5,0 -1.5,3.5 4.5,-4" fill="none" stroke="#6B6B6B" stroke-width="1.8" stroke-linecap="round" stroke-linejoin="round"/></g>

  <!-- NODE 6  T=502 cy=526 -->
  <rect x="132" y="502" width="48" height="48" rx="12" fill="#F4F5F7"/>
  <g transform="translate(156,526)" stroke="#141414" stroke-width="1.6" fill="none" stroke-linecap="round" stroke-linejoin="round">
    <path d="M-9,-11 L3,-11 L7,-7 L7,11 L-9,11 Z"/>
    <polyline points="3,-11 3,-7 7,-7"/>
    <line x1="-5" y1="-1" x2="4" y2="-1"/>
    <line x1="-5" y1="4" x2="4" y2="4"/>
  </g>
  <circle cx="132" cy="502" r="11" fill="#141414"/>
  <text x="132" y="506" fill="#FFFFFF" font-size="11" font-weight="700" text-anchor="middle">6</text>
  <text x="204" y="521" fill="#141414" font-size="15.5" font-weight="700">使用说明文档</text>
  <text x="204" y="541" fill="#8C8C8C" font-size="11.5">形成 md 说明文档 → 形成 html 使用说明网页</text>
  <g transform="translate(696,526)"><circle r="11" fill="#F4F5F7"/><polyline points="-4.5,0 -1.5,3.5 4.5,-4" fill="none" stroke="#6B6B6B" stroke-width="1.8" stroke-linecap="round" stroke-linejoin="round"/></g>

  <!-- NODE 7  T=574 cy=598 -->
  <rect x="132" y="574" width="48" height="48" rx="12" fill="#F4F5F7"/>
  <g transform="translate(156,598)" stroke="#141414" stroke-width="1.6" fill="none" stroke-linecap="round" stroke-linejoin="round">
    <rect x="-11" y="-9" width="22" height="18" rx="3"/>
    <polygon points="-3,-4 -3,4 4,0" fill="#141414" stroke="none"/>
  </g>
  <circle cx="132" cy="574" r="11" fill="#141414"/>
  <text x="132" y="578" fill="#FFFFFF" font-size="11" font-weight="700" text-anchor="middle">7</text>
  <text x="204" y="593" fill="#141414" font-size="15.5" font-weight="700">录制教程视频</text>
  <text x="204" y="613" fill="#8C8C8C" font-size="11.5">按文档走查全流程 · 录屏 + 讲解</text>
  <g transform="translate(696,598)"><circle r="11" fill="#F4F5F7"/><polyline points="-4.5,0 -1.5,3.5 4.5,-4" fill="none" stroke="#6B6B6B" stroke-width="1.8" stroke-linecap="round" stroke-linejoin="round"/></g>
</svg>
