<svg xmlns="http://www.w3.org/2000/svg" width="760" height="1128" viewBox="0 0 760 1128" font-family="'Inter','Segoe UI','PingFang SC','Microsoft YaHei',sans-serif">
  <defs>
    <marker id="ah" markerWidth="9" markerHeight="9" refX="6" refY="3" orient="auto">
      <path d="M0,0 L6,3 L0,6 Z" fill="#A8A8A8"/>
    </marker>
    <marker id="aht" markerWidth="9" markerHeight="9" refX="6" refY="3" orient="auto">
      <path d="M0,0 L6,3 L0,6 Z" fill="#B8412C"/>
    </marker>
  </defs>

  <rect width="760" height="1128" fill="#FFFFFF"/>

  <!-- ===== HEADER ===== -->
  <text x="56" y="56" fill="#141414" font-size="22" font-weight="700">竞品分析 Skill · 推进流程</text>
  <text x="56" y="80" fill="#8C8C8C" font-size="13">2026.06.04 · 6 已完成 / 1 进行中</text>
  <line x1="56" y1="100" x2="704" y2="100" stroke="#E8E8E8" stroke-width="1"/>

  <!-- ===== RAIL CONNECTORS (dashed, no arrow, larger gap to badges) ===== -->
  <g stroke="#C2C2C2" stroke-width="1.4" stroke-dasharray="4 5">
    <line x1="140" y1="198" x2="140" y2="254"/>
    <line x1="140" y1="302" x2="140" y2="358"/>
    <line x1="140" y1="406" x2="140" y2="462"/>
    <line x1="140" y1="510" x2="140" y2="566"/>
    <line x1="140" y1="614" x2="140" y2="670"/>
    <line x1="140" y1="718" x2="140" y2="774"/>
  </g>

  <!-- ===== NODES (7, top→bottom) ===== -->
  <g>
    <!-- 1 -->
    <circle cx="140" cy="174" r="16" fill="#141414"/>
    <text x="140" y="180" fill="#FFFFFF" font-size="15" font-weight="700" text-anchor="middle">1</text>
    <rect x="176" y="132" width="448" height="84" rx="11" fill="#FFFFFF" stroke="#D8D8D8" stroke-width="1.3"/>
    <text x="204" y="168" fill="#141414" font-size="16" font-weight="700">基于业务 CLI 竞品分析建立 Skill</text>
    <text x="204" y="194" fill="#9A9A9A" font-size="12.5">original_report(AI CLI 工具)→ original_skill 第一版</text>
    <text x="596" y="168" fill="#8C8C8C" font-size="12" text-anchor="end">✓ 已完成</text>

    <!-- 2 -->
    <circle cx="140" cy="278" r="16" fill="#141414"/>
    <text x="140" y="284" fill="#FFFFFF" font-size="15" font-weight="700" text-anchor="middle">2</text>
    <rect x="176" y="236" width="448" height="84" rx="11" fill="#FFFFFF" stroke="#D8D8D8" stroke-width="1.3"/>
    <text x="204" y="272" fill="#141414" font-size="16" font-weight="700">方法论三版融合</text>
    <text x="204" y="298" fill="#9A9A9A" font-size="12.5">original_skill + bufan → competitive-analysis-merged</text>
    <text x="596" y="272" fill="#8C8C8C" font-size="12" text-anchor="end">✓ 已完成</text>

    <!-- 3 (new: 竞品找图) -->
    <circle cx="140" cy="382" r="16" fill="#141414"/>
    <text x="140" y="388" fill="#FFFFFF" font-size="15" font-weight="700" text-anchor="middle">3</text>
    <rect x="176" y="340" width="448" height="84" rx="11" fill="#FFFFFF" stroke="#D8D8D8" stroke-width="1.3"/>
    <text x="204" y="376" fill="#141414" font-size="16" font-weight="700">竞品找图功能加入</text>
    <text x="204" y="402" fill="#9A9A9A" font-size="12.5">图文采集协议 · 浏览器截图采集 · 多模态视觉核查</text>
    <text x="596" y="376" fill="#8C8C8C" font-size="12" text-anchor="end">✓ 已完成</text>

    <!-- 4 -->
    <circle cx="140" cy="486" r="16" fill="#141414"/>
    <text x="140" y="492" fill="#FFFFFF" font-size="15" font-weight="700" text-anchor="middle">4</text>
    <rect x="176" y="444" width="448" height="84" rx="11" fill="#FFFFFF" stroke="#D8D8D8" stroke-width="1.3"/>
    <text x="204" y="480" fill="#141414" font-size="16" font-weight="700">可视化体系建立</text>
    <text x="204" y="506" fill="#9A9A9A" font-size="12.5">5 视角骨架 S1–S5 × 10 表达模式 P1–P10</text>
    <text x="596" y="480" fill="#8C8C8C" font-size="12" text-anchor="end">✓ 已完成</text>

    <!-- 5 (实战验证, moved after 可视化) -->
    <circle cx="140" cy="590" r="16" fill="#141414"/>
    <text x="140" y="596" fill="#FFFFFF" font-size="15" font-weight="700" text-anchor="middle">5</text>
    <rect x="176" y="548" width="448" height="84" rx="11" fill="#FFFFFF" stroke="#D8D8D8" stroke-width="1.3"/>
    <text x="204" y="584" fill="#141414" font-size="16" font-weight="700">实战案例验证</text>
    <text x="204" y="610" fill="#9A9A9A" font-size="12.5">6 个案例跑通 · md / html 两类产出</text>
    <text x="596" y="584" fill="#8C8C8C" font-size="12" text-anchor="end">✓ 已完成</text>

    <!-- 6 -->
    <circle cx="140" cy="694" r="16" fill="#141414"/>
    <text x="140" y="700" fill="#FFFFFF" font-size="15" font-weight="700" text-anchor="middle">6</text>
    <rect x="176" y="652" width="448" height="84" rx="11" fill="#FFFFFF" stroke="#D8D8D8" stroke-width="1.3"/>
    <text x="204" y="688" fill="#141414" font-size="16" font-weight="700">使用说明文档</text>
    <text x="204" y="714" fill="#9A9A9A" font-size="12.5">skill-usage-guide · 部署 GitHub Pages</text>
    <text x="596" y="688" fill="#8C8C8C" font-size="12" text-anchor="end">✓ 已完成</text>

    <!-- 7 (in progress) -->
    <circle cx="140" cy="798" r="16" fill="#FFFFFF" stroke="#B8412C" stroke-width="1.8"/>
    <text x="140" y="804" fill="#B8412C" font-size="15" font-weight="700" text-anchor="middle">7</text>
    <rect x="176" y="756" width="448" height="84" rx="11" fill="#FFFFFF" stroke="#B8412C" stroke-width="1.6"/>
    <text x="204" y="792" fill="#141414" font-size="16" font-weight="700">录制使用视频</text>
    <text x="204" y="818" fill="#9A9A9A" font-size="12.5">按文档走查全流程 · 录屏 + 讲解</text>
    <text x="596" y="792" fill="#B8412C" font-size="12" font-weight="600" text-anchor="end">◷ 进行中</text>
  </g>

  <!-- ===== BRANCH to 待办支线 ===== -->
  <path d="M140,814 L140,872 L180,872" fill="none" stroke="#B8412C" stroke-width="1.3" stroke-dasharray="4 4" marker-end="url(#aht)"/>
  <text x="204" y="876" fill="#141414" font-size="14" font-weight="700">下一步重点 · 待办支线</text>

  <!-- 3 TODO ITEMS (stacked) -->
  <g>
    <rect x="200" y="898" width="424" height="56" rx="9" fill="#FFFFFF" stroke="#E5E5E5" stroke-width="1.2"/>
    <text x="222" y="932" fill="#B8412C" font-size="14" font-weight="800">01</text>
    <text x="252" y="925" fill="#141414" font-size="13.5" font-weight="700">补 S4 / S5 视角 demo</text>
    <text x="252" y="943" fill="#9A9A9A" font-size="12">技术架构型 / 竞争格局型各出一份完整样例</text>

    <rect x="200" y="966" width="424" height="56" rx="9" fill="#FFFFFF" stroke="#E5E5E5" stroke-width="1.2"/>
    <text x="222" y="1000" fill="#B8412C" font-size="14" font-weight="800">02</text>
    <text x="252" y="993" fill="#141414" font-size="13.5" font-weight="700">跑通增量跟踪闭环</text>
    <text x="252" y="1011" fill="#9A9A9A" font-size="12">真实样本验证 continue 的 diff 工作流</text>

    <rect x="200" y="1034" width="424" height="56" rx="9" fill="#FFFFFF" stroke="#E5E5E5" stroke-width="1.2"/>
    <text x="222" y="1068" fill="#B8412C" font-size="14" font-weight="800">03</text>
    <text x="252" y="1061" fill="#141414" font-size="13.5" font-weight="700">完成视频录制</text>
    <text x="252" y="1079" fill="#9A9A9A" font-size="12">闭环最后一环,优先级最高</text>
  </g>
</svg>
