<svg xmlns="http://www.w3.org/2000/svg" width="1000" height="412" viewBox="0 0 1000 412" font-family="'Inter','Segoe UI','PingFang SC','Microsoft YaHei',sans-serif">
  <defs>
    <marker id="ah" markerWidth="9" markerHeight="9" refX="6" refY="3" orient="auto">
      <path d="M0,0 L6,3 L0,6 Z" fill="#A8A8A8"/>
    </marker>
    <marker id="aht" markerWidth="9" markerHeight="9" refX="6" refY="3" orient="auto">
      <path d="M0,0 L6,3 L0,6 Z" fill="#B8412C"/>
    </marker>
  </defs>

  <rect width="1000" height="412" fill="#FFFFFF"/>

  <!-- ===== HEADER ===== -->
  <text x="40" y="44" fill="#141414" font-size="21" font-weight="700">竞品分析 Skill · 推进流程</text>
  <text x="960" y="44" fill="#8C8C8C" font-size="13" text-anchor="end">2026.06.04 · 4 已完成 / 1 进行中</text>

  <!-- ===== FLOW ARROWS (behind nodes) ===== -->
  <g stroke="#A8A8A8" stroke-width="1.4">
    <line x1="197" y1="160" x2="227" y2="160" marker-end="url(#ah)"/>
    <line x1="388" y1="160" x2="418" y2="160" marker-end="url(#ah)"/>
    <line x1="579" y1="160" x2="609" y2="160" marker-end="url(#ah)"/>
    <line x1="770" y1="160" x2="800" y2="160" marker-end="url(#ah)"/>
  </g>

  <!-- ===== NODES (5) ===== -->
  <!-- done node template: rect + dark badge + title + sub + 已完成 -->
  <g>
    <!-- 1 -->
    <rect x="40" y="104" width="157" height="112" rx="10" fill="#FFFFFF" stroke="#D8D8D8" stroke-width="1.3"/>
    <circle cx="118.5" cy="132" r="13" fill="#141414"/>
    <text x="118.5" y="137" fill="#FFFFFF" font-size="13" font-weight="700" text-anchor="middle">1</text>
    <text x="118.5" y="167" fill="#141414" font-size="14.5" font-weight="700" text-anchor="middle">方法论融合</text>
    <text x="118.5" y="187" fill="#9A9A9A" font-size="11.5" text-anchor="middle">三版 → merged</text>
    <text x="118.5" y="206" fill="#8C8C8C" font-size="11" text-anchor="middle">✓ 已完成</text>

    <!-- 2 -->
    <rect x="231" y="104" width="157" height="112" rx="10" fill="#FFFFFF" stroke="#D8D8D8" stroke-width="1.3"/>
    <circle cx="309.5" cy="132" r="13" fill="#141414"/>
    <text x="309.5" y="137" fill="#FFFFFF" font-size="13" font-weight="700" text-anchor="middle">2</text>
    <text x="309.5" y="167" fill="#141414" font-size="14.5" font-weight="700" text-anchor="middle">实战验证</text>
    <text x="309.5" y="187" fill="#9A9A9A" font-size="11.5" text-anchor="middle">6 案例 · md/html</text>
    <text x="309.5" y="206" fill="#8C8C8C" font-size="11" text-anchor="middle">✓ 已完成</text>

    <!-- 3 -->
    <rect x="422" y="104" width="157" height="112" rx="10" fill="#FFFFFF" stroke="#D8D8D8" stroke-width="1.3"/>
    <circle cx="500.5" cy="132" r="13" fill="#141414"/>
    <text x="500.5" y="137" fill="#FFFFFF" font-size="13" font-weight="700" text-anchor="middle">3</text>
    <text x="500.5" y="167" fill="#141414" font-size="14.5" font-weight="700" text-anchor="middle">可视化体系</text>
    <text x="500.5" y="187" fill="#9A9A9A" font-size="11.5" text-anchor="middle">S1–S5 × P1–P10</text>
    <text x="500.5" y="206" fill="#8C8C8C" font-size="11" text-anchor="middle">✓ 已完成</text>

    <!-- 4 -->
    <rect x="613" y="104" width="157" height="112" rx="10" fill="#FFFFFF" stroke="#D8D8D8" stroke-width="1.3"/>
    <circle cx="691.5" cy="132" r="13" fill="#141414"/>
    <text x="691.5" y="137" fill="#FFFFFF" font-size="13" font-weight="700" text-anchor="middle">4</text>
    <text x="691.5" y="167" fill="#141414" font-size="14.5" font-weight="700" text-anchor="middle">使用文档</text>
    <text x="691.5" y="187" fill="#9A9A9A" font-size="11.5" text-anchor="middle">GitHub Pages</text>
    <text x="691.5" y="206" fill="#8C8C8C" font-size="11" text-anchor="middle">✓ 已完成</text>

    <!-- 5 (in progress) -->
    <rect x="804" y="104" width="157" height="112" rx="10" fill="#FFFFFF" stroke="#B8412C" stroke-width="1.6"/>
    <circle cx="882.5" cy="132" r="13" fill="#FFFFFF" stroke="#B8412C" stroke-width="1.6"/>
    <text x="882.5" y="137" fill="#B8412C" font-size="13" font-weight="700" text-anchor="middle">5</text>
    <text x="882.5" y="167" fill="#141414" font-size="14.5" font-weight="700" text-anchor="middle">录制视频</text>
    <text x="882.5" y="187" fill="#9A9A9A" font-size="11.5" text-anchor="middle">走查 + 录屏讲解</text>
    <text x="882.5" y="206" fill="#B8412C" font-size="11" font-weight="600" text-anchor="middle">◷ 进行中</text>
  </g>

  <!-- ===== BRANCH from node5 to 待办支线 ===== -->
  <path d="M882.5,216 L882.5,250 L500,250 L500,278" fill="none" stroke="#B8412C" stroke-width="1.3" stroke-dasharray="4 4" marker-end="url(#aht)"/>
  <text x="500" y="304" fill="#141414" font-size="13.5" font-weight="700" text-anchor="middle">下一步重点 · 待办支线</text>

  <!-- ===== 3 TODO BOXES ===== -->
  <g>
    <rect x="40" y="322" width="293" height="66" rx="9" fill="#FFFFFF" stroke="#E5E5E5" stroke-width="1.2"/>
    <text x="58" y="350" fill="#B8412C" font-size="14" font-weight="800">01</text>
    <text x="86" y="350" fill="#141414" font-size="13.5" font-weight="700">补 S4 / S5 视角 demo</text>
    <text x="86" y="370" fill="#9A9A9A" font-size="12">技术架构型 / 竞争格局型各一份</text>

    <rect x="353" y="322" width="293" height="66" rx="9" fill="#FFFFFF" stroke="#E5E5E5" stroke-width="1.2"/>
    <text x="371" y="350" fill="#B8412C" font-size="14" font-weight="800">02</text>
    <text x="399" y="350" fill="#141414" font-size="13.5" font-weight="700">跑通增量跟踪闭环</text>
    <text x="399" y="370" fill="#9A9A9A" font-size="12">真实样本验证 continue diff 工作流</text>

    <rect x="666" y="322" width="295" height="66" rx="9" fill="#FFFFFF" stroke="#E5E5E5" stroke-width="1.2"/>
    <text x="684" y="350" fill="#B8412C" font-size="14" font-weight="800">03</text>
    <text x="712" y="350" fill="#141414" font-size="13.5" font-weight="700">完成视频录制</text>
    <text x="712" y="370" fill="#9A9A9A" font-size="12">闭环最后一环,优先级最高</text>
  </g>
</svg>
